PathFileType	4	(X/Y/Z)	TVC_26_Cal_03_0_static_RCNL2025.trc
DataRate	CameraRate	NumFrames	NumMarkers	Units	OrigDataRate	OrigDataStartFrame	OrigNumFrames
100	100	5	27	mm	100	368	420
Frame#	Time	R_Shoulder			L_Shoulder			C7			J_Notch			R_Elbow			L_Elbow			R_Wrist			L_Wrist			R_Asis			L_Asis			R_Psis			L_Psis			Sacral			Thoracic			Sternum			R_Thigh_Lateral			R_Knee_Lateral			R_Shank_Lateral			R_Ankle_Lateral			R_Heel			R_Toe			L_Thigh_Lateral			L_Knee_Lateral			L_Shank_Lateral			L_Ankle_Lateral			L_Heel			L_Toe		
		X1	Y1	Z1	X2	Y2	Z2	X3	Y3	Z3	X4	Y4	Z4	X5	Y5	Z5	X6	Y6	Z6	X7	Y7	Z7	X8	Y8	Z8	X9	Y9	Z9	X10	Y10	Z10	X11	Y11	Z11	X12	Y12	Z12	X13	Y13	Z13	X14	Y14	Z14	X15	Y15	Z15	X16	Y16	Z16	X17	Y17	Z17	X18	Y18	Z18	X19	Y19	Z19	X20	Y20	Z20	X21	Y21	Z21	X22	Y22	Z22	X23	Y23	Z23	X24	Y24	Z24	X25	Y25	Z25	X26	Y26	Z26	X27	Y27	Z27
368	3.67000000	-181.805191	1357.739502	-123.829659	-112.365334	1384.028564	-438.968109	-226.315292	1416.445312	-289.877930	-87.186539	1312.424438	-260.878754	-196.446716	1032.104858	13.120079	-112.005936	1050.791504	-526.901978	-179.070244	820.522949	43.578702	-102.326668	828.431793	-508.193008	-151.488266	952.244751	-124.269096	-56.668999	957.722717	-394.493744	-320.165222	973.914185	-251.198547	-275.059235	966.737427	-391.722839	-297.612228	970.325806	-321.460693	-292.915283	1140.569336	-326.139130	-40.302628	1077.018921	-265.774597	-230.486176	579.556458	-87.067123	-242.800430	434.150238	-135.131531	-260.185455	282.805817	-84.109268	-269.406769	76.000259	-135.918015	-313.295227	54.417606	-184.855606	-129.061859	39.972164	-149.896515	-90.084908	585.006409	-453.836243	-184.284119	416.216125	-421.991394	-165.444382	267.502411	-457.033966	-195.866531	67.221024	-390.022400	-251.313644	50.536938	-348.137756	-60.089378	39.830467	-350.676788
369	3.68000000	-181.907822	1357.801880	-123.776474	-112.718079	1384.118286	-438.858795	-226.590179	1416.390137	-289.678772	-87.230492	1312.537842	-260.821106	-196.333649	1032.062256	13.019670	-112.239220	1050.922485	-526.898132	-178.969566	820.202850	43.283354	-101.844326	828.493744	-507.824722	-151.672318	952.304443	-124.258133	-57.084133	957.570618	-394.574738	-320.251678	973.926941	-251.129318	-275.161713	966.757812	-391.620544	-297.706696	970.342377	-321.374931	-292.997253	1140.678223	-325.858765	-40.447968	1077.073975	-265.703949	-229.771912	579.242920	-87.524231	-242.803955	434.185852	-135.135223	-260.080322	282.820099	-84.064247	-269.412872	75.977615	-135.921494	-313.279907	54.425751	-184.853333	-128.996155	39.991432	-149.959396	-90.188126	585.071716	-453.857635	-184.298523	416.187775	-421.852753	-165.447983	267.833496	-457.422852	-195.962158	67.207649	-390.036255	-251.319992	50.494102	-348.152527	-60.088390	39.844944	-350.713257
370	3.69000000	-181.943771	1357.665039	-123.571533	-113.015877	1384.273071	-438.814209	-226.885178	1416.523682	-289.536377	-87.283211	1312.690308	-260.866455	-196.064545	1031.935913	12.896024	-112.420219	1051.051758	-526.909851	-178.652283	820.407318	42.971212	-101.885460	828.813690	-508.103165	-151.589386	952.409790	-124.299561	-56.894840	957.837341	-394.468231	-320.322937	973.914551	-251.034348	-275.282440	966.732483	-391.653931	-297.802689	970.323517	-321.344139	-293.107208	1140.627563	-325.737152	-40.462982	1077.146729	-265.736023	-229.944946	579.317139	-86.925591	-242.746826	434.212708	-135.094025	-260.104614	282.653229	-84.028664	-269.416809	75.966263	-135.922913	-313.291809	54.386833	-184.853180	-129.030396	39.994808	-149.910004	-90.195709	584.921143	-453.728546	-184.311798	416.177094	-421.865448	-165.208755	268.084656	-457.752106	-195.931595	67.207809	-390.014008	-251.277145	50.584927	-348.107452	-60.055782	39.860271	-350.689575
371	3.70000000	-182.053101	1357.864258	-123.612755	-113.316071	1384.350098	-438.784302	-227.075272	1416.527710	-289.422821	-87.414398	1312.816650	-260.855438	-195.842560	1031.833008	12.746266	-112.659927	1051.186646	-526.939392	-178.327660	820.379547	42.715766	-102.290382	828.937622	-508.279099	-151.647522	952.411804	-124.215233	-57.242119	957.648438	-394.508942	-320.399689	973.923401	-250.987442	-275.379028	966.686279	-391.564758	-297.889359	970.304840	-321.276100	-293.230194	1140.685425	-325.634583	-40.547287	1077.232300	-265.723022	-230.313446	579.510559	-87.004784	-242.725586	434.122925	-135.121124	-259.990112	282.824615	-84.068001	-269.504120	75.975883	-135.970810	-313.322998	54.403141	-184.771729	-129.112915	40.001060	-149.957077	-90.173965	584.897766	-453.603180	-184.327133	416.225220	-421.883514	-165.103134	268.110596	-457.790192	-195.963806	67.176903	-389.991852	-251.325394	50.517998	-348.081512	-60.043190	39.830250	-350.674896
372	3.71000000	-182.102280	1357.904785	-123.550842	-113.509064	1384.380005	-438.725037	-227.325195	1416.465332	-289.339996	-87.564095	1312.876831	-260.875610	-195.849594	1031.879517	12.796804	-112.831810	1051.208740	-526.965759	-178.067574	820.235382	42.597855	-102.731361	828.960846	-508.367294	-151.992981	952.379028	-124.369949	-57.424637	957.605957	-394.414551	-320.477814	973.934570	-250.945694	-275.445892	966.682495	-391.508514	-297.961853	970.308533	-321.227104	-293.386749	1140.652344	-325.633575	-40.502754	1077.372925	-265.788818	-230.281036	579.481201	-86.746346	-242.729645	434.073273	-135.129639	-259.968109	282.836578	-84.018509	-269.505859	75.976494	-135.988846	-313.230377	54.365467	-185.026138	-129.107132	40.007122	-149.914062	-90.467659	585.012329	-453.873657	-184.347153	416.227295	-421.835083	-165.109863	268.241028	-457.896423	-195.902710	67.187012	-389.972656	-251.305405	50.607677	-348.158966	-60.055656	39.803436	-350.683044
